# xmcd
#
# Track frame offsets: 
#        150
#        13644
#        24400
#        36940
#        48982
#        60837
#        73882
#        86140
#        99745
#        110126
#        122710
#        135734
#        146092
#        158881
#        171634
#        184734
#        195544
#        209118
#        222905
#        234749
#        245902
#        258262
#        270683
#        280273
#        292396
#
# Disc length: 4083 seconds
#
# Revision: 0
# Processed by: cddbd v1.5.2PL0 Copyright (c) Steve Scherf et al.
# Submitted via: ExactAudioCopyFreeDBPlugin 1.0
#
DISCID=980ff119
DTITLE=Hank Ballard - Hank Ballard and The Midnighters:  Five Classic Al
DTITLE=bums plus Singles, 1954-1962 [Real Gone Music]
DYEAR=2016
DGENRE=Rhythm and Blues
TTITLE0=Open Up the Back Door
TTITLE1=In the Doorway Crying
TTITLE2=Oh So Happy
TTITLE3=Let 'Em Roll
TTITLE4=E Bosta Cosi
TTITLE5=Stay By My Side
TTITLE6=Daddy's Little Baby
TTITLE7=Partners for Life
TTITLE8=Is Your Love for Real
TTITLE9=What Made You Change Your Mind
TTITLE10=Let Me Hold Your Hand
TTITLE11=Early One Morning
TTITLE12=Teardrops on Your Letter
TTITLE13=Ring-A-Ling A-Ling
TTITLE14=Don't Say Your Last Goodbye
TTITLE15=Whatsonever You Do
TTITLE16=Stingy Little Thing
TTITLE17=Ashamed of Myself
TTITLE18=The Twist
TTITLE19=That House on the Hill
TTITLE20=Sweet Mama, Do Right
TTITLE21=Ooh Ooh Baby
TTITLE22=Tell Them
TTITLE23=Rock and Roll Wedding
TTITLE24=I'll Be Home Someday
EXTD=
EXTT0=
EXTT1=
EXTT2=
EXTT3=
EXTT4=
EXTT5=
EXTT6=
EXTT7=
EXTT8=
EXTT9=
EXTT10=
EXTT11=
EXTT12=
EXTT13=
EXTT14=
EXTT15=
EXTT16=
EXTT17=
EXTT18=
EXTT19=
EXTT20=
EXTT21=
EXTT22=
EXTT23=
EXTT24=
PLAYORDER=
